<mxfile host="app.diagrams.net" modified="2022-07-31T10:19:51.388Z" agent="5.0 (Macintosh; Intel Mac OS X 10_15_7) AppleWebKit/537.36 (KHTML, like Gecko) Chrome/103.0.0.0 Safari/537.36" etag="xyVNbDgriGyh3DEvmzm3" version="20.2.2" type="github">
  <diagram id="yPbtmMXkyOZbilqxfl9m" name="페이지-1">
    <mxGraphModel dx="538" dy="793" grid="1" gridSize="10" guides="1" tooltips="1" connect="1" arrows="1" fold="1" page="1" pageScale="1" pageWidth="827" pageHeight="1169" math="0" shadow="0">
      <root>
        <mxCell id="0" />
        <mxCell id="1" parent="0" />
        <mxCell id="d9TycxSH5dQzu6RFEWoO-1" value="" style="whiteSpace=wrap;html=1;aspect=fixed;" vertex="1" parent="1">
          <mxGeometry x="80" y="180" width="370" height="370" as="geometry" />
        </mxCell>
        <mxCell id="d9TycxSH5dQzu6RFEWoO-2" value="" style="whiteSpace=wrap;html=1;aspect=fixed;fillColor=#f5f5f5;fontColor=#333333;strokeColor=#666666;" vertex="1" parent="1">
          <mxGeometry x="100" y="200" width="270" height="270" as="geometry" />
        </mxCell>
        <mxCell id="d9TycxSH5dQzu6RFEWoO-3" value="&lt;b&gt;&lt;font style=&quot;font-size: 16px;&quot;&gt;Compute substrate&lt;/font&gt;&lt;/b&gt;" style="text;html=1;strokeColor=none;fillColor=none;align=center;verticalAlign=middle;whiteSpace=wrap;rounded=0;" vertex="1" parent="1">
          <mxGeometry x="200" y="500" width="150" height="30" as="geometry" />
        </mxCell>
        <mxCell id="d9TycxSH5dQzu6RFEWoO-4" value="&lt;b&gt;&lt;font style=&quot;font-size: 13px;&quot;&gt;Execution Environment&lt;/font&gt;&lt;/b&gt;" style="text;html=1;strokeColor=none;fillColor=none;align=center;verticalAlign=middle;whiteSpace=wrap;rounded=0;" vertex="1" parent="1">
          <mxGeometry x="152.5" y="430" width="165" height="30" as="geometry" />
        </mxCell>
        <mxCell id="d9TycxSH5dQzu6RFEWoO-5" value="" style="whiteSpace=wrap;html=1;aspect=fixed;" vertex="1" parent="1">
          <mxGeometry x="130" y="220" width="200" height="200" as="geometry" />
        </mxCell>
        <mxCell id="d9TycxSH5dQzu6RFEWoO-6" value="" style="whiteSpace=wrap;html=1;aspect=fixed;fillColor=#f5f5f5;fontColor=#333333;strokeColor=#666666;" vertex="1" parent="1">
          <mxGeometry x="152.5" y="230" width="127.5" height="127.5" as="geometry" />
        </mxCell>
        <mxCell id="d9TycxSH5dQzu6RFEWoO-7" value="&lt;b&gt;&lt;font style=&quot;font-size: 16px;&quot;&gt;Function&lt;/font&gt;&lt;/b&gt;" style="text;html=1;strokeColor=none;fillColor=none;align=center;verticalAlign=middle;whiteSpace=wrap;rounded=0;fontSize=13;" vertex="1" parent="1">
          <mxGeometry x="186.25" y="278.75" width="60" height="30" as="geometry" />
        </mxCell>
        <mxCell id="d9TycxSH5dQzu6RFEWoO-8" value="&lt;b&gt;Language runtime&lt;/b&gt;" style="text;html=1;strokeColor=none;fillColor=none;align=center;verticalAlign=middle;whiteSpace=wrap;rounded=0;fontSize=16;" vertex="1" parent="1">
          <mxGeometry x="153" y="380" width="147" height="30" as="geometry" />
        </mxCell>
      </root>
    </mxGraphModel>
  </diagram>
</mxfile>
